<?xml version="1.0" encoding="UTF-8"?>
<svg version="1.1" xmlns="http://www.w3.org/2000/svg" width="248" height="361">
<path d="M0 0 C3.89195522 1.98135902 6.94325506 4.10300958 9 8 C10.15051618 13.01296335 10.5112159 16.48976559 8.12280273 21.24731445 C3.18633102 28.95310494 -4.15246076 35.36637328 -10.5625 41.8125 C-11.48224609 42.75287109 -12.40199219 43.69324219 -13.34960938 44.66210938 C-14.24615234 45.56380859 -15.14269531 46.46550781 -16.06640625 47.39453125 C-17.2721228 48.61426636 -17.2721228 48.61426636 -18.50219727 49.85864258 C-22.25730698 53.07788481 -25.57160326 54.84695749 -30.5 55.375 C-35.71686233 54.81605046 -38.79260214 53.33792735 -42.3125 49.4375 C-44.61327263 46.11416175 -45.19711408 44.25814249 -45.3125 40.25 C-45.34988281 39.40953125 -45.38726562 38.5690625 -45.42578125 37.703125 C-44.43984568 31.44379095 -39.16831529 26.87128039 -34.84375 22.578125 C-34.25960327 21.99206482 -33.67545654 21.40600464 -33.0736084 20.80218506 C-31.84563612 19.57285939 -30.61516503 18.34602519 -29.38232422 17.12158203 C-27.49861258 15.2486205 -25.62586015 13.36517371 -23.75390625 11.48046875 C-22.55532856 10.28321205 -21.35613095 9.08657558 -20.15625 7.890625 C-19.59885132 7.32917786 -19.04145264 6.76773071 -18.46716309 6.18927002 C-12.56293187 0.35562258 -8.20655531 -1.06309247 0 0 Z " fill="#FCFCFC" transform="translate(100,249)"/>
<path d="M0 0 C2.61997197 2.51192661 5.11602179 5.10107076 7.58813477 7.75854492 C9.28499929 9.53553557 10.98418539 11.31031248 12.68579102 13.08276367 C13.49733643 13.93394775 14.30888184 14.78513184 15.14501953 15.66210938 C17.93013842 18.48036064 20.84953103 21.07409784 23.88696289 23.61547852 C28.15367424 27.40542683 30.18444297 31.45352522 30.62329102 37.05151367 C30.38767239 41.92410677 28.46444995 45.20092353 24.96313477 48.44604492 C21.63121542 50.66732449 19.75307572 51.26904283 15.77563477 51.38354492 C14.93516602 51.42092773 14.09469727 51.45831055 13.22875977 51.49682617 C6.91047035 50.50160428 2.24392065 45.10840288 -2.11499023 40.76635742 C-3.02737457 39.86395828 -3.02737457 39.86395828 -3.95819092 38.94332886 C-5.23474979 37.67684279 -6.50865828 36.40768019 -7.7800293 35.13598633 C-9.72214187 33.19826326 -11.67970975 31.27711934 -13.63842773 29.35620117 C-14.88159321 28.11890176 -16.12381374 26.88065203 -17.36499023 25.64135742 C-17.94831116 25.07240753 -18.53163208 24.50345764 -19.13262939 23.91726685 C-23.63245939 19.36626244 -25.47436523 15.70275065 -25.47436523 9.13354492 C-24.67775693 4.30758065 -22.20990496 1.13199508 -18.47436523 -1.92895508 C-12.01854086 -4.97415526 -5.64303797 -4.39917543 0 0 Z " fill="#FCFCFC" transform="translate(76.474365234375,41.928955078125)"/>
<path d="M0 0 C3.49080587 3.00371668 5.37389619 5.83971434 5.96575928 10.5065918 C6.0836357 13.11335593 6.10329996 15.70312163 6.0859375 18.3125 C6.08880768 19.26640625 6.09167786 20.2203125 6.09463501 21.203125 C6.09667027 23.21354773 6.09117818 25.2239905 6.07861328 27.234375 C6.06255216 30.30253598 6.0784805 33.36937974 6.09765625 36.4375 C6.09567372 38.39583623 6.09182985 40.35417164 6.0859375 42.3125 C6.09504654 43.68148437 6.09504654 43.68148437 6.1043396 45.078125 C6.04768937 50.23661439 5.57856233 53.85807132 2.6875 58.3125 C-1.96951554 62.51517256 -4.84255855 63.66088368 -10.9921875 63.6015625 C-15.6360353 63.02303601 -19.39202656 59.84780995 -22.3125 56.3125 C-23.24588722 53.51233834 -23.45346785 51.74510816 -23.48950195 48.84448242 C-23.50233719 47.94312057 -23.51517242 47.04175873 -23.52839661 46.11308289 C-23.53578354 45.14119522 -23.54317047 44.16930756 -23.55078125 43.16796875 C-23.558853 42.16542557 -23.56692474 41.16288239 -23.57524109 40.12995911 C-23.58907363 38.00747402 -23.5997995 35.88496676 -23.60766602 33.76245117 C-23.62487862 30.52284439 -23.66877275 27.28425825 -23.71289062 24.04492188 C-23.72301787 21.98177833 -23.73153387 19.91862612 -23.73828125 17.85546875 C-23.75578934 16.88965378 -23.77329742 15.92383881 -23.79133606 14.92875671 C-23.77245455 9.05036687 -23.16651799 5.82028858 -19.3125 1.3125 C-13.48478044 -3.96887085 -6.75221755 -3.43980894 0 0 Z " fill="#FDFDFD" transform="translate(191.3125,297.6875)"/>
<path d="M0 0 C3.7876402 3.0623474 6.65168536 6.20096219 7.26742554 11.14901733 C7.27504913 11.92145782 7.28267273 12.69389832 7.29052734 13.48974609 C7.3096669 14.81164444 7.3096669 14.81164444 7.32919312 16.1602478 C7.33141876 17.1051004 7.33364441 18.049953 7.3359375 19.0234375 C7.3425943 20.00236969 7.3492511 20.98130188 7.35610962 21.98989868 C7.36622731 24.05932742 7.37092691 26.12878874 7.37060547 28.19824219 C7.37497464 31.35666968 7.41129301 34.51369503 7.44921875 37.671875 C7.45508795 39.68489107 7.45905665 41.69791376 7.4609375 43.7109375 C7.47530853 44.65174164 7.48967957 45.59254578 7.50448608 46.56185913 C7.4562908 53.51373271 5.95733794 56.56948799 1.4375 61.8125 C-2.32112537 64.91745139 -7.41286865 64.41629788 -12 64 C-16.71288297 62.48832056 -18.80530986 60.47611515 -21.16845703 56.1411438 C-22.76563835 52.02855431 -22.5683549 47.82400089 -22.53125 43.46484375 C-22.5350769 42.46796036 -22.53890381 41.47107697 -22.54284668 40.44398499 C-22.54555815 38.34537745 -22.53825079 36.24673567 -22.52148438 34.14819336 C-22.50004169 30.94373044 -22.52132436 27.74150363 -22.546875 24.53710938 C-22.54423203 22.49218258 -22.53910769 20.44725716 -22.53125 18.40234375 C-22.53934692 17.449077 -22.54744385 16.49581024 -22.55578613 15.51365662 C-22.47419274 9.70309278 -21.83044344 6.44403678 -18 2 C-11.9199642 -2.40802595 -6.93448671 -2.52613444 0 0 Z " fill="#FDFDFD" transform="translate(190,2)"/>
<path d="M0 0 C0.93312515 -0.00428513 1.86625031 -0.00857025 2.82765198 -0.01298523 C4.79695832 -0.01871645 6.76628582 -0.01923771 8.7355957 -0.01489258 C11.74011523 -0.01173325 14.743649 -0.03520473 17.74804688 -0.06054688 C19.66536335 -0.06282013 21.58268245 -0.06352324 23.5 -0.0625 C24.39391953 -0.07170975 25.28783905 -0.08091949 26.20884705 -0.09040833 C32.51185105 -0.0439082 36.73726492 1.07017253 41.62890625 5.30078125 C44.81941804 9.08212855 44.65281111 13.06343958 44.59765625 17.79296875 C44.08149448 22.39541121 41.81116727 25.07080752 38.33178711 27.93383789 C33.84848302 29.96622552 29.62679917 29.74890929 24.7578125 29.734375 C23.2249485 29.74223778 23.2249485 29.74223778 21.66111755 29.7502594 C19.5034984 29.75667258 17.34584426 29.75535174 15.18823242 29.74682617 C11.89373265 29.73831953 8.60096908 29.76708327 5.30664062 29.79882812 C3.20703177 29.8004404 1.10741985 29.79986211 -0.9921875 29.796875 C-2.46430946 29.81372597 -2.46430946 29.81372597 -3.96617126 29.83091736 C-9.86668008 29.77103705 -13.16135783 29.17472934 -17.68359375 25.30078125 C-21.23510788 21.39411571 -21.30499752 17.10816601 -21.16796875 12.03125 C-20.39350528 7.66552447 -18.20124826 4.91803829 -14.68359375 2.30078125 C-9.91825461 -0.22736389 -5.25826438 -0.00534902 0 0 Z " fill="#FDFDFD" transform="translate(20.68359375,165.69921875)"/>
<path d="M0 0 C3.83669597 2.02693372 6.99766408 4.10071426 9 8 C10.10922174 12.49707728 10.38931289 15.91402194 8.8125 20.3125 C6.26381195 24.09158918 4.38073649 26.5397545 0 28 C-4.69131123 28.54508569 -8.10330648 28.44834676 -12.375 26.3125 C-15.79351181 23.30095388 -17.68960411 21.28773267 -18.31640625 16.66796875 C-18.51803106 12.32978333 -18.25200902 9.53309601 -16.375 5.5625 C-11.75979175 0.58293321 -6.64546766 -1.20706099 0 0 Z " fill="#FBFBFB" transform="translate(55,216)"/>
<path d="M0 0 C3.66302606 3.44755394 5.88693282 7.23655347 6.32421875 12.3125 C5.98561072 18.03981302 4.29754113 21.11195031 0.125 25 C-3.82964498 27.28953131 -7.3622481 27.4668364 -11.875 27 C-15.45686682 25.63653218 -18.21466126 23.72424249 -20.8125 20.875 C-22.41186742 16.54729994 -22.531874 12.55432641 -21.875 8 C-17.39165299 -1.13274391 -9.33882875 -3.24828826 0 0 Z " fill="#FBFBFB" transform="translate(135.875,314)"/>
<path d="M0 0 C3.83378636 1.81233537 5.53351018 3.30026527 7.875 6.8125 C9.60690553 11.71956568 9.63147999 15.30497476 7.8125 20.1875 C5.39045059 23.94585253 3.32535269 26.37245565 -1.11328125 27.5703125 C-6.26174428 28.38368313 -9.6115626 28.09185362 -14 25 C-17.10231382 22.2348942 -18.68593318 20.67957476 -19.44921875 16.59765625 C-19.69568972 10.94582185 -18.90103283 7.32276611 -15 3 C-10.62994645 -0.8559296 -5.54488203 -0.79085657 0 0 Z " fill="#FBFBFB" transform="translate(133,25)"/>
<path d="M0 0 C4.14546557 1.85065427 5.58888182 3.32364429 7.9375 7.1875 C9.23098803 11.82883939 9.26434415 15.36116493 8 20 C5.33377033 24.71717556 2.13981922 26.45805423 -3 28 C-7.91730216 28.14957573 -12.12763062 27.09789551 -16 24 C-19.54507955 20.08818808 -19.6125086 15.80184479 -19.49609375 10.734375 C-18.7051922 6.37507512 -16.35733934 3.76589096 -13 1 C-9.04601028 -0.97699486 -4.30960219 -0.42609061 0 0 Z " fill="#FBFBFB" transform="translate(239,320)"/>
<path d="M0 0 C3.66302606 3.44755394 5.88693282 7.23655347 6.32421875 12.3125 C5.98561072 18.03981302 4.29754113 21.11195031 0.125 25 C-4.31087458 27.83403098 -8.93249104 27.08735197 -13.875 26 C-18.05326153 24.18336455 -20.19151863 22.25300557 -21.875 18 C-22.59562858 13.3447394 -22.97804861 8.98410001 -20.6328125 4.765625 C-15.26578124 -1.69617384 -7.88607789 -2.74298361 0 0 Z " fill="#FBFBFB" transform="translate(241.875,26)"/>
<path d="M0 0 C3.58471795 2.88336009 5.97216329 5.47751846 7 10 C7.06479296 14.43831779 6.56899663 17.95304619 4.4375 21.875 C0.57943274 25.23844325 -3.11921836 27.0243721 -8.30859375 26.98046875 C-13.41295021 26.19716953 -16.85327529 24.35582952 -19.95703125 20.19140625 C-22.03007097 15.83569358 -22.01895066 11.65708324 -21 7 C-18.77254907 2.6154387 -16.04799958 0.48518499 -11.625 -1.5625 C-7.25895432 -2.08943655 -4.02215339 -1.79137924 0 0 Z " fill="#FCFCFC" transform="translate(58,112)"/>
</svg>
